<mxfile host="app.diagrams.net" agent="Mozilla/5.0 (Windows NT 10.0; Win64; x64) AppleWebKit/537.36 (KHTML, like Gecko) Chrome/130.0.0.0 Safari/537.36" version="24.8.3">
  <diagram name="Page-1" id="2YBvvXClWsGukQMizWep">
    <mxGraphModel dx="1012" dy="567" grid="1" gridSize="10" guides="1" tooltips="1" connect="1" arrows="1" fold="1" page="1" pageScale="1" pageWidth="850" pageHeight="1100" math="0" shadow="0">
      <root>
        <mxCell id="0" />
        <mxCell id="1" parent="0" />
        <mxCell id="OQYJ9vTZdGdaIspuFjBB-32" value="" style="rounded=0;whiteSpace=wrap;html=1;" parent="1" vertex="1">
          <mxGeometry x="20" y="10" width="1020" height="550" as="geometry" />
        </mxCell>
        <mxCell id="OQYJ9vTZdGdaIspuFjBB-33" value="" style="shape=umlLifeline;perimeter=lifelinePerimeter;whiteSpace=wrap;html=1;container=1;dropTarget=0;collapsible=0;recursiveResize=0;outlineConnect=0;portConstraint=eastwest;newEdgeStyle={&quot;curved&quot;:0,&quot;rounded&quot;:0};participant=umlActor;" parent="1" vertex="1">
          <mxGeometry x="75" y="70" width="20" height="470" as="geometry" />
        </mxCell>
        <mxCell id="OQYJ9vTZdGdaIspuFjBB-34" value="&lt;b&gt;&lt;font style=&quot;font-size: 15px;&quot;&gt;Interface&lt;/font&gt;&lt;/b&gt;" style="shape=umlLifeline;perimeter=lifelinePerimeter;whiteSpace=wrap;html=1;container=1;dropTarget=0;collapsible=0;recursiveResize=0;outlineConnect=0;portConstraint=eastwest;newEdgeStyle={&quot;curved&quot;:0,&quot;rounded&quot;:0};" parent="1" vertex="1">
          <mxGeometry x="266" y="80" width="100" height="460" as="geometry" />
        </mxCell>
        <mxCell id="OQYJ9vTZdGdaIspuFjBB-35" value="" style="html=1;points=[[0,0,0,0,5],[0,1,0,0,-5],[1,0,0,0,5],[1,1,0,0,-5]];perimeter=orthogonalPerimeter;outlineConnect=0;targetShapes=umlLifeline;portConstraint=eastwest;newEdgeStyle={&quot;curved&quot;:0,&quot;rounded&quot;:0};" parent="OQYJ9vTZdGdaIspuFjBB-34" vertex="1">
          <mxGeometry x="45" y="70" width="10" height="370" as="geometry" />
        </mxCell>
        <mxCell id="OQYJ9vTZdGdaIspuFjBB-36" value="&lt;b&gt;&lt;font style=&quot;font-size: 15px;&quot;&gt;Views&lt;/font&gt;&lt;/b&gt;" style="shape=umlLifeline;perimeter=lifelinePerimeter;whiteSpace=wrap;html=1;container=1;dropTarget=0;collapsible=0;recursiveResize=0;outlineConnect=0;portConstraint=eastwest;newEdgeStyle={&quot;curved&quot;:0,&quot;rounded&quot;:0};" parent="1" vertex="1">
          <mxGeometry x="507" y="80" width="100" height="460" as="geometry" />
        </mxCell>
        <mxCell id="OQYJ9vTZdGdaIspuFjBB-37" value="" style="html=1;points=[[0,0,0,0,5],[0,1,0,0,-5],[1,0,0,0,5],[1,1,0,0,-5]];perimeter=orthogonalPerimeter;outlineConnect=0;targetShapes=umlLifeline;portConstraint=eastwest;newEdgeStyle={&quot;curved&quot;:0,&quot;rounded&quot;:0};" parent="OQYJ9vTZdGdaIspuFjBB-36" vertex="1">
          <mxGeometry x="45" y="80" width="10" height="340" as="geometry" />
        </mxCell>
        <mxCell id="OQYJ9vTZdGdaIspuFjBB-38" value="&lt;b&gt;&lt;font style=&quot;font-size: 15px;&quot;&gt;Instruction&lt;/font&gt;&lt;/b&gt;" style="shape=umlLifeline;perimeter=lifelinePerimeter;whiteSpace=wrap;html=1;container=1;dropTarget=0;collapsible=0;recursiveResize=0;outlineConnect=0;portConstraint=eastwest;newEdgeStyle={&quot;curved&quot;:0,&quot;rounded&quot;:0};" parent="1" vertex="1">
          <mxGeometry x="746" y="80" width="100" height="460" as="geometry" />
        </mxCell>
        <mxCell id="OQYJ9vTZdGdaIspuFjBB-39" value="" style="html=1;points=[[0,0,0,0,5],[0,1,0,0,-5],[1,0,0,0,5],[1,1,0,0,-5]];perimeter=orthogonalPerimeter;outlineConnect=0;targetShapes=umlLifeline;portConstraint=eastwest;newEdgeStyle={&quot;curved&quot;:0,&quot;rounded&quot;:0};" parent="OQYJ9vTZdGdaIspuFjBB-38" vertex="1">
          <mxGeometry x="45" y="100" width="10" height="40" as="geometry" />
        </mxCell>
        <mxCell id="OQYJ9vTZdGdaIspuFjBB-40" value="&lt;font style=&quot;font-size: 15px;&quot;&gt;&lt;b&gt;InstructionValidee&lt;/b&gt;&lt;/font&gt;" style="shape=umlLifeline;perimeter=lifelinePerimeter;whiteSpace=wrap;html=1;container=1;dropTarget=0;collapsible=0;recursiveResize=0;outlineConnect=0;portConstraint=eastwest;newEdgeStyle={&quot;curved&quot;:0,&quot;rounded&quot;:0};" parent="1" vertex="1">
          <mxGeometry x="871" y="80" width="140" height="460" as="geometry" />
        </mxCell>
        <mxCell id="OQYJ9vTZdGdaIspuFjBB-41" value="" style="html=1;points=[[0,0,0,0,5],[0,1,0,0,-5],[1,0,0,0,5],[1,1,0,0,-5]];perimeter=orthogonalPerimeter;outlineConnect=0;targetShapes=umlLifeline;portConstraint=eastwest;newEdgeStyle={&quot;curved&quot;:0,&quot;rounded&quot;:0};" parent="OQYJ9vTZdGdaIspuFjBB-40" vertex="1">
          <mxGeometry x="65" y="168" width="10" height="61" as="geometry" />
        </mxCell>
        <mxCell id="OQYJ9vTZdGdaIspuFjBB-42" value="&lt;font style=&quot;font-size: 15px;&quot;&gt;AfficherDetailInstruction()&lt;/font&gt;" style="html=1;verticalAlign=bottom;endArrow=block;curved=0;rounded=0;entryX=0;entryY=0;entryDx=0;entryDy=5;entryPerimeter=0;" parent="1" source="OQYJ9vTZdGdaIspuFjBB-33" target="OQYJ9vTZdGdaIspuFjBB-35" edge="1">
          <mxGeometry relative="1" as="geometry">
            <mxPoint x="170" y="157" as="sourcePoint" />
            <mxPoint x="320" y="157" as="targetPoint" />
            <Array as="points" />
            <mxPoint as="offset" />
          </mxGeometry>
        </mxCell>
        <mxCell id="OQYJ9vTZdGdaIspuFjBB-43" value="&lt;font style=&quot;font-size: 15px;&quot;&gt;&lt;span style=&quot;text-align: left;&quot;&gt;InfosStructures +&amp;nbsp;&lt;/span&gt;&lt;span style=&quot;text-align: left;&quot;&gt;InfosInstruction&lt;/span&gt;&lt;/font&gt;" style="html=1;verticalAlign=bottom;endArrow=open;dashed=1;endSize=8;curved=0;rounded=0;exitX=0;exitY=1;exitDx=0;exitDy=-5;" parent="1" source="OQYJ9vTZdGdaIspuFjBB-35" target="OQYJ9vTZdGdaIspuFjBB-33" edge="1">
          <mxGeometry relative="1" as="geometry">
            <mxPoint x="332" y="255" as="targetPoint" />
          </mxGeometry>
        </mxCell>
        <mxCell id="OQYJ9vTZdGdaIspuFjBB-44" value="&lt;font style=&quot;font-size: 14px;&quot;&gt;GetDetailInstruction(id_instruction)&lt;/font&gt;" style="html=1;verticalAlign=bottom;endArrow=block;curved=0;rounded=0;entryX=0;entryY=0;entryDx=0;entryDy=5;" parent="1" source="OQYJ9vTZdGdaIspuFjBB-34" target="OQYJ9vTZdGdaIspuFjBB-37" edge="1">
          <mxGeometry relative="1" as="geometry">
            <mxPoint x="446" y="180" as="sourcePoint" />
          </mxGeometry>
        </mxCell>
        <mxCell id="OQYJ9vTZdGdaIspuFjBB-45" value="&lt;font style=&quot;font-size: 15px;&quot;&gt;GetInstrutionById(id_instruction)&lt;/font&gt;" style="html=1;verticalAlign=bottom;endArrow=block;curved=0;rounded=0;entryX=0;entryY=0;entryDx=0;entryDy=5;" parent="1" source="OQYJ9vTZdGdaIspuFjBB-36" target="OQYJ9vTZdGdaIspuFjBB-39" edge="1">
          <mxGeometry x="0.0028" relative="1" as="geometry">
            <mxPoint x="672" y="185" as="sourcePoint" />
            <mxPoint as="offset" />
          </mxGeometry>
        </mxCell>
        <mxCell id="OQYJ9vTZdGdaIspuFjBB-46" value="&lt;font style=&quot;font-size: 15px;&quot;&gt;instruction&lt;/font&gt;" style="html=1;verticalAlign=bottom;endArrow=open;dashed=1;endSize=8;curved=0;rounded=0;exitX=0;exitY=1;exitDx=0;exitDy=-5;" parent="1" source="OQYJ9vTZdGdaIspuFjBB-39" target="OQYJ9vTZdGdaIspuFjBB-36" edge="1">
          <mxGeometry x="0.0028" relative="1" as="geometry">
            <mxPoint x="672" y="255" as="targetPoint" />
            <mxPoint as="offset" />
          </mxGeometry>
        </mxCell>
        <mxCell id="OQYJ9vTZdGdaIspuFjBB-47" value="&lt;font style=&quot;font-size: 14px;&quot;&gt;GetAllIntructionsValideesByInstructionId(id_instruction)&lt;/font&gt;" style="html=1;verticalAlign=bottom;endArrow=block;curved=0;rounded=0;entryX=0;entryY=0;entryDx=0;entryDy=5;" parent="1" source="OQYJ9vTZdGdaIspuFjBB-36" target="OQYJ9vTZdGdaIspuFjBB-41" edge="1">
          <mxGeometry relative="1" as="geometry">
            <mxPoint x="862" y="316" as="sourcePoint" />
          </mxGeometry>
        </mxCell>
        <mxCell id="OQYJ9vTZdGdaIspuFjBB-48" value="&lt;font style=&quot;font-size: 15px;&quot;&gt;AllInstructionValidees&lt;/font&gt;" style="html=1;verticalAlign=bottom;endArrow=open;dashed=1;endSize=8;curved=0;rounded=0;exitX=0;exitY=1;exitDx=0;exitDy=-5;" parent="1" source="OQYJ9vTZdGdaIspuFjBB-41" target="OQYJ9vTZdGdaIspuFjBB-36" edge="1">
          <mxGeometry x="0.0013" relative="1" as="geometry">
            <mxPoint x="862" y="386" as="targetPoint" />
            <mxPoint as="offset" />
          </mxGeometry>
        </mxCell>
        <mxCell id="OQYJ9vTZdGdaIspuFjBB-49" value="&lt;b&gt;LOOP&lt;/b&gt;:&amp;nbsp;&lt;span style=&quot;text-wrap-mode: nowrap; background-color: rgb(255, 255, 255);&quot;&gt;&lt;font style=&quot;font-size: 15px;&quot;&gt;AllInstructionValidees&lt;/font&gt;&lt;/span&gt;" style="shape=umlFrame;whiteSpace=wrap;html=1;pointerEvents=0;recursiveResize=0;container=1;collapsible=0;width=200;height=32;" parent="1" vertex="1">
          <mxGeometry x="60" y="328" width="830" height="95" as="geometry" />
        </mxCell>
        <mxCell id="OQYJ9vTZdGdaIspuFjBB-50" value="" style="html=1;points=[[0,0,0,0,5],[0,1,0,0,-5],[1,0,0,0,5],[1,1,0,0,-5]];perimeter=orthogonalPerimeter;outlineConnect=0;targetShapes=umlLifeline;portConstraint=eastwest;newEdgeStyle={&quot;curved&quot;:0,&quot;rounded&quot;:0};" parent="OQYJ9vTZdGdaIspuFjBB-49" vertex="1">
          <mxGeometry x="497" y="52" width="10" height="40" as="geometry" />
        </mxCell>
        <mxCell id="OQYJ9vTZdGdaIspuFjBB-51" value="&lt;font style=&quot;font-size: 15px;&quot;&gt;GetInfosStructure&lt;/font&gt;" style="html=1;align=left;spacingLeft=2;endArrow=block;rounded=0;edgeStyle=orthogonalEdgeStyle;curved=0;rounded=0;" parent="1" target="OQYJ9vTZdGdaIspuFjBB-50" edge="1">
          <mxGeometry x="-0.2308" relative="1" as="geometry">
            <mxPoint x="551.5" y="353" as="sourcePoint" />
            <Array as="points">
              <mxPoint x="612" y="353" />
              <mxPoint x="612" y="403" />
            </Array>
            <mxPoint y="1" as="offset" />
          </mxGeometry>
        </mxCell>
        <mxCell id="OQYJ9vTZdGdaIspuFjBB-52" value="&lt;font style=&quot;font-size: 15px;&quot;&gt;&lt;span style=&quot;text-align: left;&quot;&gt;InfosStructures +&amp;nbsp;&lt;/span&gt;&lt;span style=&quot;text-align: left;&quot;&gt;InfosInstruction&lt;/span&gt;&lt;/font&gt;" style="html=1;verticalAlign=bottom;endArrow=open;dashed=1;endSize=8;curved=0;rounded=0;exitX=0;exitY=1;exitDx=0;exitDy=-5;exitPerimeter=0;" parent="1" source="OQYJ9vTZdGdaIspuFjBB-37" target="OQYJ9vTZdGdaIspuFjBB-34" edge="1">
          <mxGeometry relative="1" as="geometry">
            <mxPoint x="521" y="610" as="sourcePoint" />
            <mxPoint x="441" y="610" as="targetPoint" />
          </mxGeometry>
        </mxCell>
        <mxCell id="OQYJ9vTZdGdaIspuFjBB-53" value="" style="html=1;points=[[0,0,0,0,5],[0,1,0,0,-5],[1,0,0,0,5],[1,1,0,0,-5]];perimeter=orthogonalPerimeter;outlineConnect=0;targetShapes=umlLifeline;portConstraint=eastwest;newEdgeStyle={&quot;curved&quot;:0,&quot;rounded&quot;:0};" parent="1" vertex="1">
          <mxGeometry x="557" y="443" width="10" height="40" as="geometry" />
        </mxCell>
        <mxCell id="OQYJ9vTZdGdaIspuFjBB-54" value="&lt;font style=&quot;font-size: 15px;&quot;&gt;getInfosInstruction&lt;/font&gt;" style="html=1;align=left;spacingLeft=2;endArrow=block;rounded=0;edgeStyle=orthogonalEdgeStyle;curved=0;rounded=0;" parent="1" edge="1">
          <mxGeometry relative="1" as="geometry">
            <mxPoint x="557" y="430" as="sourcePoint" />
            <Array as="points">
              <mxPoint x="592" y="430" />
              <mxPoint x="592" y="463" />
            </Array>
            <mxPoint x="567" y="463" as="targetPoint" />
          </mxGeometry>
        </mxCell>
        <mxCell id="OQYJ9vTZdGdaIspuFjBB-55" value="&lt;font style=&quot;font-size: 15px;&quot;&gt;Seq : Consulter Instruction Globales&lt;/font&gt;" style="shape=umlFrame;whiteSpace=wrap;html=1;pointerEvents=0;width=260;height=30;" parent="1" vertex="1">
          <mxGeometry x="40" y="30" width="980" height="510" as="geometry" />
        </mxCell>
        <mxCell id="OQYJ9vTZdGdaIspuFjBB-56" value="&lt;b&gt;&lt;font style=&quot;font-size: 15px;&quot;&gt;user&lt;/font&gt;&lt;/b&gt;" style="text;html=1;align=center;verticalAlign=middle;whiteSpace=wrap;rounded=0;" parent="1" vertex="1">
          <mxGeometry x="120" y="110" width="60" height="30" as="geometry" />
        </mxCell>
      </root>
    </mxGraphModel>
  </diagram>
</mxfile>
